<svg width="1440" height="142" viewBox="0 0 1440 142" fill="none" xmlns="http://www.w3.org/2000/svg">
<path d="M0 22.4497L34.9017 21.1545C69.8033 19.8593 139.607 17.269 209.085 20.4637C278.726 23.5721 347.88 32.552 417.521 33.8472C487 35.1424 556.803 28.7528 626.282 23.5721C695.923 18.3914 765.077 14.4196 834.718 11.0521C904.197 7.77102 974 5.1807 1043.48 8.37546C1113.12 11.4839 1182.27 20.4637 1251.91 20.032C1321.39 19.6003 1391.2 9.75698 1426.1 4.92167L1461 0V141.606H1426.1C1391.2 141.606 1321.39 141.606 1251.91 141.606C1182.27 141.606 1113.12 141.606 1043.48 141.606C974 141.606 904.197 141.606 834.718 141.606C765.077 141.606 695.923 141.606 626.282 141.606C556.803 141.606 487 141.606 417.521 141.606C347.88 141.606 278.726 141.606 209.085 141.606C139.607 141.606 69.8033 141.606 34.9017 141.606H0V22.4497Z" fill="#C6A4FF"/>
<path d="M0 69.9406L34.9017 73.3943C69.8033 76.8481 139.607 83.7557 209.085 84.0148C278.726 84.3601 347.88 77.9706 417.521 76.4164C487 74.8622 556.803 77.9706 626.282 76.4164C695.923 74.8622 765.077 68.4727 834.718 62.6012C904.197 56.7298 974 51.2037 1043.48 54.1395C1113.12 56.9888 1182.27 68.2137 1251.91 67.9546C1321.39 67.6093 1391.2 55.8663 1426.1 49.9085L1461 44.0371V141.607H1426.1C1391.2 141.607 1321.39 141.607 1251.91 141.607C1182.27 141.607 1113.12 141.607 1043.48 141.607C974 141.607 904.197 141.607 834.718 141.607C765.077 141.607 695.923 141.607 626.282 141.607C556.803 141.607 487 141.607 417.521 141.607C347.88 141.607 278.726 141.607 209.085 141.607C139.607 141.607 69.8033 141.607 34.9017 141.607H0V69.9406Z" fill="#B364FF"/>
<path d="M0 75.9844L34.9017 81.4241C69.8033 86.9502 139.607 97.8296 209.085 98.434C278.726 99.0384 347.88 89.1951 417.521 84.4462C487 79.6972 556.803 80.0426 626.282 81.7695C695.923 83.4964 765.077 86.6048 834.718 86.9502C904.197 87.2092 974 84.6189 1043.48 83.0647C1113.12 81.4241 1182.27 80.906 1251.91 84.1871C1321.39 87.4682 1391.2 94.7212 1426.1 98.2613L1461 101.888V141.606H1426.1C1391.2 141.606 1321.39 141.606 1251.91 141.606C1182.27 141.606 1113.12 141.606 1043.48 141.606C974 141.606 904.197 141.606 834.718 141.606C765.077 141.606 695.923 141.606 626.282 141.606C556.803 141.606 487 141.606 417.521 141.606C347.88 141.606 278.726 141.606 209.085 141.606C139.607 141.606 69.8033 141.606 34.9017 141.606H0V75.9844Z" fill="#8246C4"/>
</svg>
