<svg width="200" height="185" viewBox="0 0 200 185" fill="none" xmlns="http://www.w3.org/2000/svg">
  <path d="M13.0584 0H29.8969L35.7388 1.71821L40.8935 4.46735L45.0172 8.24742L47.4227 10.9966L50.1718 15.8076L51.5464 19.5876L52.921 24.055L61.1684 48.4536L63.2302 54.2955L64.6048 58.7629L69.7595 73.8832L74.9141 88.6598L82.1306 109.622L87.9725 126.804L90.378 132.99L92.4399 135.739L95.189 137.457L97.2509 138.144H101.375L104.811 136.77L107.216 134.708L109.278 130.584L115.808 112.027L121.306 96.2199L130.928 97.9381L140.206 99.3127L143.643 99.6564H156.357L152.921 107.904L147.766 119.588L141.581 134.021L135.395 148.11L129.21 162.543L124.055 174.227L121.993 177.32L119.931 179.725L115.464 182.818L112.027 184.192H87.6289L83.5052 182.474L80.0687 180.069L77.3196 177.32L74.5704 172.509L68.3849 158.076L62.1993 143.986L56.0137 129.553L49.8282 115.464L43.6426 101.031L37.457 86.9416L31.2715 72.5086L25.4296 59.1065L18.5567 43.299L14.0893 32.9897L9.96564 23.7113L5.49828 14.0893L1.03093 5.15464L0 3.43643L5.15464 1.71821L13.0584 0Z" fill="#FDFDFD"/>
  <path d="M69.1017 54.2949H88.6893L100.03 54.9822L112.057 56.3568L132.676 59.4496L135.425 59.7932L143.328 60.4805H158.449L168.414 59.4496L180.786 57.3877L192.126 54.9822L191.438 56.3568L186.971 61.1678L184.566 63.9169L181.473 67.3533L179.067 70.1025L175.975 73.5389L172.882 77.319L172.538 78.6935L174.6 79.3808L181.816 82.4736L193.5 86.941L192.126 88.3155L183.535 92.4393L175.287 95.532L167.04 97.9375L159.48 99.3121L153.638 99.9994H143.672L133.019 98.6248L122.023 96.563L119.029 96L114.529 95L111.529 94L108.029 93L99.5293 90.5L91.0293 88L83.0293 86.5L78.0293 86H74.0293L72.8818 83.5045L67.7271 68.7279L63.5293 56L63.2598 54.6386L69.1017 54.2949Z" fill="#77878D"/>
  <path d="M172.509 0H184.88L193.471 1.71821L200 3.78007V5.15464L196.907 9.96564L191.409 20.6186L187.629 28.5223L181.443 41.9244L174.227 58.7629L168.385 59.7938L158.419 60.8247H143.299L135.395 60.1375L134.364 59.7938L135.395 56.0137L141.581 38.1443L147.423 21.6495L149.828 14.7766L152.234 10.9966L155.67 7.56014L160.481 4.12371L164.605 2.06186L170.447 0.343643L172.509 0Z" fill="#FDFDFD"/>
</svg>