<svg width="49" height="49" viewBox="0 0 49 49" fill="none" xmlns="http://www.w3.org/2000/svg">
<mask id="mask0_212_1229" style="mask-type:luminance" maskUnits="userSpaceOnUse" x="0" y="0" width="49" height="49">
<path d="M0 0H48.07V48.07H0V0Z" fill="white"/>
</mask>
<g mask="url(#mask0_212_1229)">
<path d="M24.035 0C18.3487 0 13.7345 4.84584 13.7345 10.8161C13.7842 14.5732 15.7229 17.7478 17.7399 20.7681C15.4912 19.0664 12.9916 18.0369 10.3005 18.0265C4.61505 18.0265 0 22.8714 0 28.8425C0 34.8127 4.61505 39.6577 10.3005 39.6577C14.9068 39.5811 18.5908 36.3578 22.2113 33.6492C21.5633 41.741 20.2456 46.2846 12.5901 48.07H35.4807C27.8244 46.2837 26.5076 41.741 25.8596 33.6492C29.4374 36.7157 33.1902 39.318 37.7695 39.6577C43.4558 39.6577 48.07 34.8127 48.07 28.8425C48.07 22.8714 43.4558 18.0265 37.7695 18.0265C35.0096 18.0265 32.625 19.2963 30.3301 20.7681C32.6136 17.7791 34.1169 14.5541 34.3355 10.8161C34.3355 4.84584 29.7213 0 24.035 0Z" fill="#382C2C"/>
</g>
</svg>
