<svg width="21" height="21" viewBox="0 0 21 21" fill="none" xmlns="http://www.w3.org/2000/svg">
<path opacity="0.6" fill-rule="evenodd" clip-rule="evenodd" d="M8.23568 4.0145C6.01887 4.0145 4.22179 5.80784 4.22179 8.02005C4.22179 10.2323 6.01887 12.0256 8.23568 12.0256C10.4525 12.0256 12.2496 10.2323 12.2496 8.02005C12.2496 5.80784 10.4525 4.0145 8.23568 4.0145ZM2.21484 8.02005C2.21484 4.70174 4.91046 2.01172 8.23568 2.01172C11.5609 2.01172 14.2565 4.70174 14.2565 8.02005C14.2565 9.31768 13.8443 10.5192 13.1434 11.5014L17.9765 16.3245C18.3684 16.7155 18.3684 17.3496 17.9765 17.7406C17.5846 18.1317 16.9492 18.1317 16.5574 17.7406L11.7243 12.9176C10.7401 13.617 9.53601 14.0284 8.23568 14.0284C4.91046 14.0284 2.21484 11.3384 2.21484 8.02005Z" fill="#231F2D"/>
</svg>
