<svg width="49" height="48" viewBox="0 0 49 48" fill="none" xmlns="http://www.w3.org/2000/svg">
<mask id="mask0_212_1226" style="mask-type:luminance" maskUnits="userSpaceOnUse" x="32" y="26" width="17" height="6">
<path d="M32.2109 26.1289H48.072V31.443H32.2109V26.1289Z" fill="white"/>
</mask>
<g mask="url(#mask0_212_1226)">
<path d="M45.496 26.1738H34.9681C33.5514 26.1738 32.3984 27.3224 32.3984 28.7297C32.3984 30.1568 33.5514 31.3167 34.9681 31.3167H45.496C46.9119 31.3167 48.0657 30.1568 48.0657 28.7297C48.0657 27.3173 46.9119 26.1738 45.496 26.1738Z" fill="#382C2C"/>
</g>
<path d="M36.2064 23.7326H44.2554C45.6713 23.7326 46.8251 22.578 46.8251 21.1612C46.8251 19.7332 45.6713 18.5742 44.2554 18.5742H36.2064C34.7897 18.5742 33.6367 19.7332 33.6367 21.1612C33.6367 22.578 34.7897 23.7326 36.2064 23.7326Z" fill="#382C2C"/>
<mask id="mask1_212_1226" style="mask-type:luminance" maskUnits="userSpaceOnUse" x="0" y="0" width="34" height="48">
<path d="M0 0H33.7589V47.7162H0V0Z" fill="white"/>
</mask>
<g mask="url(#mask1_212_1226)">
<path d="M31.2014 36.3223C31.2014 35.2991 31.5145 34.307 32.1165 33.4568L32.4053 33.0468L32.0058 32.7536C30.8468 31.9025 30.1185 30.5921 30.0069 29.1589L29.9265 28.1271L29.1576 28.8147C25.8181 31.8065 21.8524 32.1308 20.3042 32.1308C19.9098 32.1308 19.6563 32.1101 19.6719 32.136L19.5102 32.0902C18.8373 32.0141 18.3719 31.4173 18.4524 30.7383C18.5285 30.0654 19.1106 29.6044 19.8233 29.6805C20.7496 29.7566 28.95 30.1614 31.3726 19.8809L31.6762 18.5749H27.5791C27.1795 18.5749 26.7894 18.3725 26.5723 18.0438C26.3448 17.7091 26.3042 17.2792 26.4503 16.9246C26.4659 16.8943 28.1508 12.83 28.6265 8.527C28.7882 7.05922 28.7121 5.38905 28.4033 3.55627C28.0997 1.76934 26.7185 0.372481 24.948 0.0835952C24.0631 -0.0227905 23.2691 0.519518 23.097 1.36455L21.9129 6.85683C21.1639 10.3243 19.4142 13.4476 16.854 15.8867L10.3835 22.0674C9.20025 23.191 7.65203 23.8137 6.01818 23.8137H1.54565C0.696294 23.8137 0.0078125 24.5022 0.0078125 25.3524V39.3391C0.0078125 40.1894 0.696294 40.8778 1.54565 40.8778H8.3803C8.80498 40.8778 9.20025 41.0949 9.42253 41.4547L10.4241 43.0592C12.205 45.9238 15.2911 47.6658 18.685 47.7159C18.8476 47.7159 19.0146 47.7159 19.1763 47.7159C24.1946 47.7159 28.6464 47.3925 32.4149 46.749L33.0826 46.6382L32.7894 46.0302C32.4555 45.3374 32.2886 44.6186 32.2886 43.8895C32.2886 42.8568 32.6224 41.844 33.2599 40.9635L33.5488 40.5639L33.1587 40.2603C31.9193 39.2881 31.2014 37.8506 31.2014 36.3223Z" fill="#382C2C"/>
</g>
<path d="M44.2502 33.7363H36.2064C34.7897 33.7363 33.6367 34.8953 33.6367 36.3233C33.6367 37.7401 34.7897 38.8947 36.2064 38.8947H44.2554C45.6713 38.8947 46.8251 37.7401 46.8251 36.3233C46.8251 34.8953 45.667 33.7363 44.2502 33.7363Z" fill="#382C2C"/>
<path d="M43.1673 41.3125H37.2893C35.8726 41.3125 34.7188 42.4663 34.7188 43.8839C34.7188 45.3111 35.8726 46.4709 37.2893 46.4709H43.1673C44.5841 46.4709 45.737 45.3111 45.737 43.8839C45.737 42.4663 44.5841 41.3125 43.1673 41.3125Z" fill="#382C2C"/>
</svg>
