<svg width="49" height="49" viewBox="0 0 49 49" fill="none" xmlns="http://www.w3.org/2000/svg">
<mask id="mask0_212_1220" style="mask-type:luminance" maskUnits="userSpaceOnUse" x="0" y="0" width="49" height="49">
<path d="M0 0H48.07V48.07H0V0Z" fill="white"/>
</mask>
<g mask="url(#mask0_212_1220)">
<path d="M24.035 0.000174166C23.9026 -0.00156758 23.7711 0.00975437 23.6405 0.0341404C23.5098 0.0585263 23.3835 0.0951052 23.2599 0.144748C23.1371 0.194391 23.0195 0.255356 22.9089 0.327643C22.7974 0.400801 22.6955 0.483539 22.6006 0.576728C22.5056 0.669918 22.422 0.771816 22.3471 0.881553C22.2731 0.99129 22.2104 1.10799 22.159 1.22992C22.1076 1.35273 22.0693 1.47901 22.0432 1.60878C22.0171 1.73942 22.004 1.87093 22.004 2.00331C22.004 2.13569 22.0171 2.2672 22.0432 2.39784C22.0693 2.52761 22.1076 2.65389 22.159 2.77669C22.2104 2.89862 22.2731 3.01533 22.3471 3.12506C22.422 3.2348 22.5056 3.3367 22.6006 3.42989C22.6955 3.52308 22.7974 3.60582 22.9089 3.67897C23.0195 3.75126 23.1371 3.81223 23.2599 3.86187C23.3835 3.91151 23.5098 3.94809 23.6405 3.97248C23.7711 3.99686 23.9026 4.00818 24.035 4.00644C35.1202 4.00644 44.0646 12.95 44.0646 24.0352C44.0646 35.1203 35.1202 44.0648 24.035 44.0648C23.9026 44.0622 23.7711 44.0735 23.6405 44.0979C23.5098 44.1223 23.3835 44.1588 23.2599 44.2085C23.1371 44.2581 23.0195 44.3191 22.9089 44.3922C22.7974 44.4645 22.6955 44.5481 22.6006 44.6413C22.5056 44.7345 22.422 44.8355 22.3471 44.9453C22.2731 45.0559 22.2104 45.1717 22.159 45.2945C22.1076 45.4165 22.0693 45.5427 22.0432 45.6734C22.0171 45.8031 22.004 45.9347 22.004 46.067C22.004 46.2003 22.0171 46.3318 22.0432 46.4616C22.0693 46.5913 22.1076 46.7176 22.159 46.8404C22.2104 46.9632 22.2731 47.0791 22.3471 47.1888C22.422 47.2994 22.5056 47.4004 22.6006 47.4936C22.6955 47.5868 22.7974 47.6695 22.9089 47.7427C23.0195 47.815 23.1371 47.8768 23.2599 47.9256C23.3835 47.9752 23.5098 48.0127 23.6405 48.0362C23.7711 48.0606 23.9026 48.0719 24.035 48.0702C37.2853 48.0702 48.07 37.2855 48.07 24.0352C48.07 10.7849 37.2853 0.000174166 24.035 0.000174166ZM15.6166 1.67845C15.3466 1.67671 15.088 1.7281 14.838 1.83086C14.7169 1.88138 14.6011 1.94321 14.4922 2.0155C14.3825 2.08866 14.2815 2.1714 14.1883 2.26459C14.096 2.35691 14.0124 2.45793 13.9392 2.5668C13.866 2.67654 13.8042 2.7915 13.7537 2.91256C13.7032 3.03449 13.6649 3.15903 13.6396 3.28793C13.6135 3.41682 13.6004 3.54659 13.6004 3.6781C13.5995 3.80961 13.6126 3.94025 13.6379 4.06915C13.6631 4.19805 13.7006 4.32259 13.7511 4.44452C13.8007 4.56645 13.8626 4.68141 13.9357 4.79115C14.008 4.90089 14.0916 5.00191 14.1839 5.0951C14.2771 5.18829 14.3781 5.2719 14.4879 5.34506C14.5968 5.41822 14.7126 5.48005 14.8336 5.53057C14.9556 5.58108 15.081 5.6194 15.2099 5.64466C15.3388 5.67079 15.4694 5.68385 15.6009 5.68385C15.7324 5.68385 15.8631 5.67166 15.992 5.64553C16.1209 5.62027 16.2463 5.58195 16.3682 5.53231C16.4893 5.4818 16.6051 5.41996 16.7148 5.34767C16.8246 5.27451 16.9256 5.19178 17.0188 5.09859C17.112 5.0054 17.1956 4.90437 17.2688 4.79463C17.3419 4.68577 17.4038 4.56993 17.4543 4.44887C17.5048 4.32694 17.5431 4.20153 17.5684 4.07263C17.5945 3.94374 17.6076 3.8131 17.6076 3.68159C17.6076 3.55008 17.5945 3.42031 17.5692 3.29054C17.544 3.16164 17.5057 3.03623 17.4551 2.91517C17.3802 2.73315 17.2801 2.56593 17.1547 2.41264C17.0301 2.26023 16.8864 2.12959 16.7227 2.01899C16.559 1.90925 16.383 1.82564 16.1949 1.76729C16.0068 1.70981 15.8134 1.68019 15.6166 1.67845ZM8.48545 6.45549C8.21546 6.45114 7.95506 6.50078 7.70423 6.60268C7.4534 6.70458 7.23306 6.85089 7.04145 7.04163C6.94913 7.13482 6.86553 7.23584 6.79324 7.34558C6.72008 7.45445 6.65824 7.57028 6.60773 7.69134C6.55722 7.81327 6.51977 7.93868 6.49364 8.06758C6.46838 8.19648 6.45532 8.32625 6.45532 8.45776C6.45532 8.58927 6.46838 8.71991 6.49364 8.8488C6.51977 8.9777 6.55722 9.10311 6.60773 9.22417C6.65824 9.3461 6.72008 9.46107 6.79324 9.5708C6.86553 9.67967 6.94913 9.78157 7.04145 9.87389C7.13464 9.96707 7.23567 10.0498 7.34541 10.123C7.45427 10.1961 7.57011 10.258 7.69116 10.3085C7.8131 10.3581 7.93851 10.3964 8.06741 10.4226C8.1963 10.4478 8.32607 10.4609 8.45758 10.4609C8.58909 10.4609 8.71973 10.4478 8.84863 10.4226C8.97753 10.3964 9.10294 10.3581 9.224 10.3085C9.34593 10.258 9.46089 10.1961 9.57063 10.123C9.68036 10.0498 9.78139 9.96707 9.87371 9.87389C9.9669 9.78157 10.0496 9.67967 10.1228 9.5708C10.196 9.46107 10.2578 9.3461 10.3083 9.22417C10.3588 9.10311 10.3963 8.9777 10.4224 8.8488C10.4477 8.71991 10.4607 8.58927 10.4607 8.45776C10.4607 8.32625 10.4477 8.19648 10.4224 8.06758C10.3963 7.93868 10.3588 7.81327 10.3083 7.69134C10.2578 7.57028 10.196 7.45445 10.1228 7.34558C10.0496 7.23584 9.9669 7.13482 9.87371 7.04163C9.68995 6.85699 9.47744 6.71416 9.23706 6.61313C8.99669 6.51123 8.74586 6.45898 8.48545 6.45549ZM3.72496 13.6023C3.5229 13.598 3.3252 13.6232 3.13099 13.679C2.93677 13.7347 2.75562 13.8174 2.58666 13.9272C2.4177 14.0378 2.26877 14.171 2.13987 14.3261C2.01097 14.4811 1.9082 14.6518 1.83156 14.8382C1.78105 14.9601 1.74273 15.0855 1.71747 15.2144C1.69134 15.3433 1.67828 15.4731 1.67828 15.6046C1.67828 15.7361 1.69134 15.8667 1.7166 15.9956C1.74273 16.1245 1.78105 16.2499 1.83069 16.371C1.8812 16.4929 1.94304 16.6079 2.0162 16.7176C2.08936 16.8274 2.17209 16.9284 2.26528 17.0216C2.3576 17.1139 2.4595 17.1975 2.56837 17.2707C2.6781 17.3438 2.79307 17.4048 2.915 17.4553C3.03606 17.5058 3.16147 17.5433 3.29124 17.5694C3.42013 17.5947 3.5499 17.6077 3.68228 17.6077C3.81379 17.6077 3.94356 17.5947 4.07246 17.5685C4.20223 17.5424 4.32677 17.505 4.4487 17.4544C4.57063 17.4039 4.68559 17.3421 4.79533 17.2681C4.9042 17.1949 5.00522 17.1122 5.09841 17.019C5.1916 16.9258 5.27434 16.8239 5.3475 16.715C5.41979 16.6053 5.48162 16.4895 5.53213 16.3675C5.58178 16.2465 5.6201 16.121 5.64536 15.9922C5.67148 15.8624 5.68368 15.7326 5.68368 15.6011C5.68368 15.4696 5.67061 15.339 5.64536 15.2101C5.61923 15.0812 5.58091 14.9557 5.53039 14.8338C5.47988 14.7128 5.41804 14.5969 5.34488 14.4881C5.27173 14.3783 5.18812 14.2773 5.09493 14.1841C5.00174 14.0918 4.90071 14.0082 4.79098 13.9359C4.68124 13.8627 4.56628 13.8009 4.44435 13.7513C4.21355 13.6563 3.97404 13.6067 3.72496 13.6023ZM36.0137 16.0043C35.7533 16.0122 35.5042 16.0679 35.2656 16.1733C35.0279 16.2778 34.818 16.4241 34.6368 16.6105L22.0327 29.2146L17.4395 24.6222C17.3471 24.5264 17.247 24.4402 17.1373 24.3644C17.0275 24.2877 16.9117 24.2233 16.7897 24.171C16.6669 24.1179 16.5407 24.0778 16.4109 24.05C16.2803 24.0221 16.1487 24.0082 16.0155 24.0064C15.8822 24.0047 15.7499 24.0169 15.6192 24.0421C15.4886 24.0665 15.3614 24.1048 15.2378 24.1545C15.1141 24.205 14.9974 24.2677 14.8859 24.3409C14.7753 24.4149 14.6725 24.4985 14.5785 24.5934C14.4844 24.6875 14.3999 24.7894 14.3268 24.9009C14.2527 25.0115 14.1909 25.1291 14.1404 25.2527C14.0899 25.3755 14.0524 25.5027 14.0272 25.6333C14.0019 25.7648 13.9906 25.8963 13.9915 26.0296C13.9932 26.1629 14.008 26.2952 14.035 26.425C14.0629 26.5556 14.1029 26.6819 14.1561 26.8039C14.2092 26.9267 14.2736 27.0425 14.3494 27.1514C14.4252 27.2611 14.5114 27.3621 14.6072 27.4544L20.6166 33.463C20.7089 33.5562 20.8108 33.6389 20.9197 33.7121C21.0294 33.7852 21.1444 33.847 21.2663 33.8967C21.3874 33.9472 21.5128 33.9855 21.6417 34.0108C21.7706 34.0369 21.9012 34.0491 22.0327 34.0491C22.1642 34.0491 22.294 34.0369 22.4229 34.0108C22.5518 33.9855 22.6772 33.9472 22.7992 33.8967C22.9202 33.847 23.036 33.7852 23.1449 33.7121C23.2546 33.6389 23.3557 33.5562 23.4489 33.463L37.4691 19.4428C37.6136 19.3017 37.7347 19.1432 37.8314 18.9664C37.928 18.7887 37.996 18.6015 38.036 18.4038C38.0761 18.2061 38.0857 18.0066 38.0657 17.8054C38.0456 17.6051 37.996 17.4118 37.9176 17.2254C37.8383 17.0399 37.7347 16.87 37.6041 16.715C37.4743 16.5609 37.3245 16.4294 37.1547 16.3205C36.9848 16.2116 36.8028 16.1298 36.6077 16.0758C36.4135 16.0218 36.2149 15.9983 36.0137 16.0043ZM2.00313 22.032C1.87162 22.032 1.74186 22.0451 1.61296 22.0712C1.48319 22.0965 1.35865 22.1348 1.23672 22.1853C1.11566 22.235 0.999825 22.2968 0.890959 22.37C0.781222 22.4431 0.680195 22.5259 0.587005 22.619C0.493816 22.7122 0.411078 22.8133 0.33792 22.923C0.264762 23.0319 0.202926 23.1477 0.152412 23.2688C0.10277 23.3907 0.0644486 23.5152 0.0391918 23.645C0.0130638 23.7739 0 23.9037 0 24.0352C0 24.1667 0.0130638 24.2973 0.0391918 24.4262C0.0644486 24.5551 0.10277 24.6805 0.152412 24.8016C0.202926 24.9235 0.264762 25.0385 0.33792 25.1482C0.411078 25.2571 0.493816 25.359 0.587005 25.4513C0.680195 25.5445 0.781222 25.6272 0.890959 25.7004C0.999825 25.7735 1.11566 25.8354 1.23672 25.8859C1.35865 25.9364 1.48319 25.9739 1.61296 26C1.74186 26.0252 1.87162 26.0383 2.00313 26.0383C2.13464 26.0383 2.26528 26.0252 2.39418 26C2.52308 25.9739 2.64849 25.9364 2.76955 25.8859C2.89148 25.8354 3.00644 25.7735 3.11618 25.7004C3.22505 25.6272 3.32694 25.5445 3.41926 25.4513C3.51245 25.359 3.59519 25.2571 3.66835 25.1482C3.74151 25.0385 3.80334 24.9235 3.85386 24.8016C3.90437 24.6805 3.94182 24.5551 3.96795 24.4262C3.9932 24.2973 4.00627 24.1667 4.00627 24.0352C4.00627 23.9037 3.9932 23.7739 3.96795 23.645C3.94182 23.5152 3.90437 23.3907 3.85386 23.2688C3.80334 23.1477 3.74151 23.0319 3.66835 22.923C3.59519 22.8133 3.51245 22.7122 3.41926 22.619C3.32694 22.5259 3.22505 22.4431 3.11618 22.37C3.00644 22.2968 2.89148 22.235 2.76955 22.1845C2.64849 22.1348 2.52308 22.0965 2.39418 22.0712C2.26528 22.0451 2.13464 22.032 2.00313 22.032ZM3.69361 30.4626C3.42362 30.4609 3.16408 30.5123 2.915 30.615C2.79307 30.6655 2.6781 30.7274 2.56837 30.8005C2.4595 30.8737 2.3576 30.9564 2.26528 31.0496C2.17209 31.1428 2.08936 31.2438 2.0162 31.3527C1.94304 31.4624 1.8812 31.5774 1.83069 31.6993C1.78105 31.8204 1.74273 31.9458 1.7166 32.0747C1.69134 32.2045 1.67828 32.3342 1.67828 32.4658C1.67828 32.5973 1.69134 32.7279 1.71747 32.8568C1.74273 32.9857 1.78105 33.1111 1.83156 33.2322C1.8812 33.3541 1.94304 33.4699 2.0162 33.5788C2.08849 33.6885 2.17209 33.7896 2.26441 33.8828C2.3576 33.9759 2.45863 34.0596 2.56837 34.1327C2.67723 34.2059 2.79307 34.2677 2.91412 34.3182C3.03606 34.3687 3.16147 34.4071 3.29037 34.4332C3.41926 34.4584 3.5499 34.4715 3.68141 34.4715C3.81292 34.4715 3.94269 34.4593 4.07246 34.4332C4.20136 34.4079 4.32677 34.3705 4.44783 34.32C4.56976 34.2694 4.68559 34.2076 4.79446 34.1345C4.9042 34.0613 5.00522 33.9786 5.09841 33.8854C5.19073 33.7922 5.27434 33.6912 5.34663 33.5823C5.41979 33.4725 5.48162 33.3576 5.53213 33.2357C5.58265 33.1146 5.6201 32.9892 5.64623 32.8603C5.67148 32.7305 5.68455 32.6007 5.68455 32.4692C5.68455 32.3377 5.67148 32.2071 5.64623 32.0782C5.6201 31.9493 5.58178 31.8239 5.53213 31.7028C5.45636 31.5199 5.35708 31.3527 5.23254 31.1994C5.10712 31.047 4.96342 30.9155 4.79968 30.8049C4.63595 30.6943 4.46002 30.6107 4.2719 30.5523C4.08378 30.494 3.89044 30.4644 3.69361 30.4626ZM8.48545 37.6095C8.21546 37.606 7.95506 37.6556 7.70423 37.7566C7.4534 37.8585 7.23306 38.0057 7.04145 38.1965C6.94913 38.2896 6.86553 38.3907 6.79324 38.5004C6.72008 38.6093 6.65824 38.7251 6.60773 38.8462C6.55722 38.9681 6.51977 39.0926 6.49364 39.2215C6.46838 39.3513 6.45532 39.4811 6.45532 39.6126C6.45532 39.7441 6.46838 39.8747 6.49364 40.0036C6.51977 40.1325 6.55722 40.2579 6.60773 40.379C6.65824 40.5009 6.72008 40.6159 6.79324 40.7256C6.86553 40.8345 6.94913 40.9355 7.04145 41.0287C7.13464 41.1219 7.23567 41.2046 7.34541 41.2778C7.45427 41.351 7.57011 41.4128 7.69116 41.4624C7.8131 41.513 7.93851 41.5513 8.06741 41.5765C8.1963 41.6027 8.32607 41.6149 8.45758 41.6149C8.58909 41.6149 8.71973 41.6027 8.84863 41.5765C8.97753 41.5513 9.10294 41.513 9.224 41.4624C9.34593 41.4128 9.46089 41.351 9.57063 41.2778C9.68036 41.2046 9.78139 41.1219 9.87371 41.0287C9.9669 40.9355 10.0496 40.8345 10.1228 40.7256C10.196 40.6159 10.2578 40.5009 10.3083 40.379C10.3588 40.2579 10.3963 40.1325 10.4224 40.0036C10.4477 39.8747 10.4607 39.7441 10.4607 39.6126C10.4607 39.4811 10.4477 39.3513 10.4224 39.2215C10.3963 39.0926 10.3588 38.9681 10.3083 38.8462C10.2578 38.7251 10.196 38.6093 10.1228 38.5004C10.0496 38.3907 9.9669 38.2896 9.87371 38.1965C9.68995 38.0118 9.47744 37.869 9.23706 37.7671C8.99669 37.6661 8.74586 37.6129 8.48545 37.6095ZM15.648 42.3865C15.4468 42.3821 15.2482 42.4074 15.0549 42.4631C14.8606 42.518 14.6795 42.6016 14.5105 42.7114C14.3416 42.822 14.1926 42.9543 14.0637 43.1102C13.9348 43.2653 13.8321 43.436 13.7546 43.6223C13.7041 43.7443 13.6666 43.8688 13.6405 43.9977C13.6152 44.1275 13.6022 44.2573 13.6022 44.3888C13.6022 44.5203 13.6152 44.6509 13.6405 44.7798C13.6666 44.9087 13.7041 45.0341 13.7546 45.1552C13.8051 45.2771 13.8669 45.3921 13.9392 45.5018C14.0124 45.6107 14.096 45.7126 14.1883 45.8049C14.2815 45.8981 14.3825 45.9808 14.4922 46.054C14.6011 46.1271 14.7169 46.189 14.838 46.2395C14.9599 46.29 15.0853 46.3274 15.2142 46.3536C15.3431 46.3788 15.4729 46.3919 15.6044 46.3919C15.7359 46.3919 15.8666 46.3788 15.9955 46.3536C16.1244 46.3283 16.2498 46.29 16.3717 46.2395C16.4928 46.189 16.6086 46.128 16.7175 46.0548C16.8272 45.9817 16.9282 45.8989 17.0214 45.8058C17.1137 45.7126 17.1973 45.6115 17.2705 45.5018C17.3437 45.3929 17.4055 45.2771 17.4551 45.156C17.5057 45.0341 17.544 44.9087 17.5692 44.7798C17.5954 44.6509 17.6076 44.5211 17.6084 44.3896C17.6084 44.2581 17.5954 44.1275 17.5692 43.9986C17.544 43.8697 17.5057 43.7443 17.456 43.6232C17.4055 43.5013 17.3437 43.3863 17.2705 43.2766C17.1973 43.1668 17.1146 43.0658 17.0214 42.9726C16.9282 42.8803 16.8272 42.7967 16.7183 42.7235C16.6086 42.6513 16.4936 42.5894 16.3717 42.5389C16.14 42.4422 15.8988 42.3917 15.648 42.3865Z" fill="#382C2C"/>
</g>
</svg>
